<svg width="375" height="436" viewBox="0 0 375 436" fill="none" xmlns="http://www.w3.org/2000/svg">
<path fill-rule="evenodd" clip-rule="evenodd" d="M-34.2054 687.461H-81C-81 687.461 106.848 109.284 126.75 48.0486C136.062 19.398 162.757 0 192.877 0H276.534C301.762 0 322.817 10.6562 335.908 28.6634C348.99 46.6715 352.701 69.7134 345.073 93.22C337.434 116.726 330.219 138.916 323.614 159.247C314.696 186.699 289.99 205.614 261.425 207.153C261.425 207.153 261.277 207.105 301.3 83.9191C304.834 73.0483 303.544 62.4078 297.992 54.7764C292.451 47.1459 283.1 42.6299 270.727 42.6299H198.941C184.845 42.6299 172.354 51.7073 167.993 65.1147L-34.2054 687.461Z" fill="#F0145A"/>
<path fill-rule="evenodd" clip-rule="evenodd" d="M261.416 207.155H167.098L208.656 80.7617L255.673 81.0395L228.372 164.394L275.249 164.422L261.416 207.155Z" fill="url(#paint0_linear)"/>
<defs>
<linearGradient id="paint0_linear" x1="146.091" y1="182.946" x2="251.01" y2="237.784" gradientUnits="userSpaceOnUse">
<stop stop-color="#F0145A"/>
<stop offset="1" stop-color="#693264"/>
</linearGradient>
</defs>
</svg>








